<svg width="165" height="61" viewBox="0 0 165 61" fill="none" xmlns="http://www.w3.org/2000/svg">
<g filter="url(#filter0_d_234_651)">
<path d="M18.2882 52.288C22.2122 52.288 25.5962 50.92 27.9002 48.328L25.5602 46.06C23.6162 48.112 21.2402 49.084 18.4682 49.084C12.7802 49.084 8.56823 44.98 8.56823 39.4C8.56823 33.82 12.7802 29.716 18.4682 29.716C21.2402 29.716 23.6162 30.652 25.5602 32.704L27.9002 30.436C25.5962 27.844 22.2122 26.512 18.3242 26.512C10.6562 26.512 4.96823 31.948 4.96823 39.4C4.96823 46.852 10.6562 52.288 18.2882 52.288ZM36.6359 48.868V40.732H49.2719V37.672H36.6359V29.932H50.8199V26.8H33.0359V52H51.3239V48.868H36.6359ZM75.981 52H79.761L68.313 26.8H64.749L53.337 52H57.045L59.817 45.7H73.209L75.981 52ZM61.077 42.82L66.513 30.472L71.949 42.82H61.077ZM93.3482 26.8H83.5202V52H87.1202V44.368H93.3482C99.9002 44.368 103.86 41.056 103.86 35.584C103.86 30.112 99.9002 26.8 93.3482 26.8ZM93.2402 41.236H87.1202V29.932H93.2402C97.8482 29.932 100.26 31.984 100.26 35.584C100.26 39.184 97.8482 41.236 93.2402 41.236ZM129.921 52L123.945 43.54C127.473 42.28 129.489 39.472 129.489 35.584C129.489 30.112 125.529 26.8 118.977 26.8H109.149V52H112.749V44.332H118.977C119.517 44.332 120.057 44.296 120.561 44.26L125.997 52H129.921ZM118.869 41.272H112.749V29.932H118.869C123.477 29.932 125.889 31.984 125.889 35.584C125.889 39.184 123.477 41.272 118.869 41.272ZM146.681 52.288C154.349 52.288 160.037 46.816 160.037 39.4C160.037 31.984 154.349 26.512 146.681 26.512C138.941 26.512 133.253 32.02 133.253 39.4C133.253 46.78 138.941 52.288 146.681 52.288ZM146.681 49.084C141.029 49.084 136.853 44.98 136.853 39.4C136.853 33.82 141.029 29.716 146.681 29.716C152.261 29.716 156.437 33.82 156.437 39.4C156.437 44.98 152.261 49.084 146.681 49.084Z" fill="#23A6F0"/>
<path d="M8.23977 19L14.5798 5H16.5598L22.9198 19H20.8198L15.1598 6.12H15.9598L10.2998 19H8.23977ZM10.9398 15.5L11.4798 13.9H19.3598L19.9398 15.5H10.9398ZM29.2505 19.12C28.1705 19.12 27.2039 18.8867 26.3505 18.42C25.5105 17.9533 24.8505 17.3133 24.3705 16.5C23.8905 15.6867 23.6505 14.7533 23.6505 13.7C23.6505 12.6467 23.8905 11.7133 24.3705 10.9C24.8505 10.0867 25.5105 9.45333 26.3505 9C27.2039 8.53333 28.1705 8.3 29.2505 8.3C30.2105 8.3 31.0639 8.49333 31.8105 8.88C32.5705 9.25333 33.1572 9.81333 33.5705 10.56L32.1105 11.5C31.7639 10.98 31.3372 10.6 30.8305 10.36C30.3372 10.1067 29.8039 9.98 29.2305 9.98C28.5372 9.98 27.9172 10.1333 27.3705 10.44C26.8239 10.7467 26.3905 11.18 26.0705 11.74C25.7505 12.2867 25.5905 12.94 25.5905 13.7C25.5905 14.46 25.7505 15.12 26.0705 15.68C26.3905 16.24 26.8239 16.6733 27.3705 16.98C27.9172 17.2867 28.5372 17.44 29.2305 17.44C29.8039 17.44 30.3372 17.32 30.8305 17.08C31.3372 16.8267 31.7639 16.44 32.1105 15.92L33.5705 16.84C33.1572 17.5733 32.5705 18.14 31.8105 18.54C31.0639 18.9267 30.2105 19.12 29.2505 19.12ZM42.6363 19V16.76L42.5363 16.34V12.52C42.5363 11.7067 42.2963 11.08 41.8163 10.64C41.3497 10.1867 40.643 9.96 39.6963 9.96C39.0697 9.96 38.4563 10.0667 37.8563 10.28C37.2563 10.48 36.7497 10.7533 36.3363 11.1L35.5363 9.66C36.083 9.22 36.7363 8.88667 37.4963 8.66C38.2697 8.42 39.0763 8.3 39.9163 8.3C41.3697 8.3 42.4897 8.65333 43.2763 9.36C44.063 10.0667 44.4563 11.1467 44.4563 12.6V19H42.6363ZM39.1563 19.12C38.3697 19.12 37.6763 18.9867 37.0763 18.72C36.4897 18.4533 36.0363 18.0867 35.7163 17.62C35.3963 17.14 35.2363 16.6 35.2363 16C35.2363 15.4267 35.3697 14.9067 35.6363 14.44C35.9163 13.9733 36.363 13.6 36.9763 13.32C37.603 13.04 38.443 12.9 39.4963 12.9H42.8563V14.28H39.5763C38.6163 14.28 37.9697 14.44 37.6363 14.76C37.303 15.08 37.1363 15.4667 37.1363 15.92C37.1363 16.44 37.343 16.86 37.7563 17.18C38.1697 17.4867 38.743 17.64 39.4763 17.64C40.1963 17.64 40.823 17.48 41.3563 17.16C41.903 16.84 42.2963 16.3733 42.5363 15.76L42.9163 17.08C42.663 17.7067 42.2163 18.2067 41.5763 18.58C40.9363 18.94 40.1297 19.12 39.1563 19.12ZM52.3895 19.12C51.3628 19.12 50.4428 18.8933 49.6295 18.44C48.8295 17.9867 48.1961 17.3533 47.7295 16.54C47.2628 15.7267 47.0295 14.78 47.0295 13.7C47.0295 12.62 47.2628 11.68 47.7295 10.88C48.1961 10.0667 48.8295 9.43333 49.6295 8.98C50.4428 8.52667 51.3628 8.3 52.3895 8.3C53.2828 8.3 54.0895 8.5 54.8095 8.9C55.5295 9.3 56.1028 9.9 56.5295 10.7C56.9695 11.5 57.1895 12.5 57.1895 13.7C57.1895 14.9 56.9761 15.9 56.5495 16.7C56.1361 17.5 55.5695 18.1067 54.8495 18.52C54.1295 18.92 53.3095 19.12 52.3895 19.12ZM52.5495 17.44C53.2161 17.44 53.8161 17.2867 54.3495 16.98C54.8961 16.6733 55.3228 16.24 55.6295 15.68C55.9495 15.1067 56.1095 14.4467 56.1095 13.7C56.1095 12.94 55.9495 12.2867 55.6295 11.74C55.3228 11.18 54.8961 10.7467 54.3495 10.44C53.8161 10.1333 53.2161 9.98 52.5495 9.98C51.8695 9.98 51.2628 10.1333 50.7295 10.44C50.1961 10.7467 49.7695 11.18 49.4495 11.74C49.1295 12.2867 48.9695 12.94 48.9695 13.7C48.9695 14.4467 49.1295 15.1067 49.4495 15.68C49.7695 16.24 50.1961 16.6733 50.7295 16.98C51.2628 17.2867 51.8695 17.44 52.5495 17.44ZM56.1695 19V16.14L56.2895 13.68L56.0895 11.22V4.16H58.0095V19H56.1695ZM66.3623 19.12C65.2289 19.12 64.2289 18.8867 63.3623 18.42C62.5089 17.9533 61.8423 17.3133 61.3623 16.5C60.8956 15.6867 60.6623 14.7533 60.6623 13.7C60.6623 12.6467 60.8889 11.7133 61.3423 10.9C61.8089 10.0867 62.4423 9.45333 63.2423 9C64.0556 8.53333 64.9689 8.3 65.9823 8.3C67.0089 8.3 67.9156 8.52667 68.7023 8.98C69.4889 9.43333 70.1023 10.0733 70.5423 10.9C70.9956 11.7133 71.2223 12.6667 71.2223 13.76C71.2223 13.84 71.2156 13.9333 71.2023 14.04C71.2023 14.1467 71.1956 14.2467 71.1823 14.34H62.1623V12.96H70.1823L69.4023 13.44C69.4156 12.76 69.2756 12.1533 68.9823 11.62C68.6889 11.0867 68.2823 10.6733 67.7623 10.38C67.2556 10.0733 66.6623 9.92 65.9823 9.92C65.3156 9.92 64.7223 10.0733 64.2023 10.38C63.6823 10.6733 63.2756 11.0933 62.9823 11.64C62.6889 12.1733 62.5423 12.7867 62.5423 13.48V13.8C62.5423 14.5067 62.7023 15.14 63.0223 15.7C63.3556 16.2467 63.8156 16.6733 64.4023 16.98C64.9889 17.2867 65.6623 17.44 66.4223 17.44C67.0489 17.44 67.6156 17.3333 68.1223 17.12C68.6423 16.9067 69.0956 16.5867 69.4823 16.16L70.5423 17.4C70.0623 17.96 69.4623 18.3867 68.7423 18.68C68.0356 18.9733 67.2423 19.12 66.3623 19.12ZM87.1484 8.3C88.0017 8.3 88.755 8.46667 89.4084 8.8C90.0617 9.13333 90.5684 9.64 90.9284 10.32C91.3017 11 91.4884 11.86 91.4884 12.9V19H89.5684V13.12C89.5684 12.0933 89.3284 11.32 88.8484 10.8C88.3684 10.28 87.695 10.02 86.8284 10.02C86.1884 10.02 85.6284 10.1533 85.1484 10.42C84.6684 10.6867 84.295 11.08 84.0284 11.6C83.775 12.12 83.6484 12.7667 83.6484 13.54V19H81.7284V13.12C81.7284 12.0933 81.4884 11.32 81.0084 10.8C80.5417 10.28 79.8684 10.02 78.9884 10.02C78.3617 10.02 77.8084 10.1533 77.3284 10.42C76.8484 10.6867 76.475 11.08 76.2084 11.6C75.9417 12.12 75.8084 12.7667 75.8084 13.54V19H73.8884V8.4H75.7284V11.22L75.4284 10.5C75.7617 9.80667 76.275 9.26667 76.9684 8.88C77.6617 8.49333 78.4684 8.3 79.3884 8.3C80.4017 8.3 81.275 8.55333 82.0084 9.06C82.7417 9.55333 83.2217 10.3067 83.4484 11.32L82.6684 11C82.9884 10.1867 83.5484 9.53333 84.3484 9.04C85.1484 8.54667 86.0817 8.3 87.1484 8.3ZM95.0212 19V8.4H96.9412V19H95.0212ZM95.9812 6.36C95.6078 6.36 95.2945 6.24 95.0412 6C94.8012 5.76 94.6812 5.46667 94.6812 5.12C94.6812 4.76 94.8012 4.46 95.0412 4.22C95.2945 3.98 95.6078 3.86 95.9812 3.86C96.3545 3.86 96.6612 3.98 96.9012 4.22C97.1545 4.44667 97.2812 4.73333 97.2812 5.08C97.2812 5.44 97.1612 5.74667 96.9212 6C96.6812 6.24 96.3678 6.36 95.9812 6.36ZM107.187 19V16.76L107.087 16.34V12.52C107.087 11.7067 106.847 11.08 106.367 10.64C105.9 10.1867 105.194 9.96 104.247 9.96C103.62 9.96 103.007 10.0667 102.407 10.28C101.807 10.48 101.3 10.7533 100.887 11.1L100.087 9.66C100.634 9.22 101.287 8.88667 102.047 8.66C102.82 8.42 103.627 8.3 104.467 8.3C105.92 8.3 107.04 8.65333 107.827 9.36C108.614 10.0667 109.007 11.1467 109.007 12.6V19H107.187ZM103.707 19.12C102.92 19.12 102.227 18.9867 101.627 18.72C101.04 18.4533 100.587 18.0867 100.267 17.62C99.9471 17.14 99.7871 16.6 99.7871 16C99.7871 15.4267 99.9204 14.9067 100.187 14.44C100.467 13.9733 100.914 13.6 101.527 13.32C102.154 13.04 102.994 12.9 104.047 12.9H107.407V14.28H104.127C103.167 14.28 102.52 14.44 102.187 14.76C101.854 15.08 101.687 15.4667 101.687 15.92C101.687 16.44 101.894 16.86 102.307 17.18C102.72 17.4867 103.294 17.64 104.027 17.64C104.747 17.64 105.374 17.48 105.907 17.16C106.454 16.84 106.847 16.3733 107.087 15.76L107.467 17.08C107.214 17.7067 106.767 18.2067 106.127 18.58C105.487 18.94 104.68 19.12 103.707 19.12Z" fill="#23A6F0"/>
</g>
<defs>
<filter id="filter0_d_234_651" x="0.968262" y="3.86" width="163.069" height="56.428" filterUnits="userSpaceOnUse" color-interpolation-filters="sRGB">
<feFlood flood-opacity="0" result="BackgroundImageFix"/>
<feColorMatrix in="SourceAlpha" type="matrix" values="0 0 0 0 0 0 0 0 0 0 0 0 0 0 0 0 0 0 127 0" result="hardAlpha"/>
<feOffset dy="0"/>
<feGaussianBlur stdDeviation="0"/>
<feComposite in2="hardAlpha" operator="out"/>
<feColorMatrix type="matrix" values="0 0 0 0 0 0 0 0 0 0 0 0 0 0 0 0 0 0 0 0"/>
<feBlend mode="normal" in2="BackgroundImageFix" result="effect1_dropShadow_234_651"/>
<feBlend mode="normal" in="SourceGraphic" in2="effect1_dropShadow_234_651" result="shape"/>
</filter>
</defs>
</svg>
