<svg width="247" height="61" viewBox="0 0 247 61" fill="none" xmlns="http://www.w3.org/2000/svg">
<path d="M96.2882 52.288C100.212 52.288 103.596 50.92 105.9 48.328L103.56 46.06C101.616 48.112 99.2402 49.084 96.4682 49.084C90.7802 49.084 86.5682 44.98 86.5682 39.4C86.5682 33.82 90.7802 29.716 96.4682 29.716C99.2402 29.716 101.616 30.652 103.56 32.704L105.9 30.436C103.596 27.844 100.212 26.512 96.3242 26.512C88.6562 26.512 82.9682 31.948 82.9682 39.4C82.9682 46.852 88.6562 52.288 96.2882 52.288ZM114.636 48.868V40.732H127.272V37.672H114.636V29.932H128.82V26.8H111.036V52H129.324V48.868H114.636ZM153.981 52H157.761L146.313 26.8H142.749L131.337 52H135.045L137.817 45.7H151.209L153.981 52ZM139.077 42.82L144.513 30.472L149.949 42.82H139.077ZM171.348 26.8H161.52V52H165.12V44.368H171.348C177.9 44.368 181.86 41.056 181.86 35.584C181.86 30.112 177.9 26.8 171.348 26.8ZM171.24 41.236H165.12V29.932H171.24C175.848 29.932 178.26 31.984 178.26 35.584C178.26 39.184 175.848 41.236 171.24 41.236ZM207.921 52L201.945 43.54C205.473 42.28 207.489 39.472 207.489 35.584C207.489 30.112 203.529 26.8 196.977 26.8H187.149V52H190.749V44.332H196.977C197.517 44.332 198.057 44.296 198.561 44.26L203.997 52H207.921ZM196.869 41.272H190.749V29.932H196.869C201.477 29.932 203.889 31.984 203.889 35.584C203.889 39.184 201.477 41.272 196.869 41.272ZM224.681 52.288C232.349 52.288 238.037 46.816 238.037 39.4C238.037 31.984 232.349 26.512 224.681 26.512C216.941 26.512 211.253 32.02 211.253 39.4C211.253 46.78 216.941 52.288 224.681 52.288ZM224.681 49.084C219.029 49.084 214.853 44.98 214.853 39.4C214.853 33.82 219.029 29.716 224.681 29.716C230.261 29.716 234.437 33.82 234.437 39.4C234.437 44.98 230.261 49.084 224.681 49.084Z" fill="#23A6F0"/>
<path d="M91.5863 17.26V12.74H98.6063V11.04H91.5863V6.74H99.4663V5H89.5863V19H99.7463V17.26H91.5863ZM105.608 19.12C108.428 19.12 110.188 17.9 110.188 15.98C110.188 11.86 103.468 13.9 103.468 11.4C103.468 10.56 104.288 9.94 105.968 9.94C107.008 9.94 108.068 10.16 109.028 10.78L109.848 9.26C108.928 8.66 107.368 8.3 105.988 8.3C103.268 8.3 101.568 9.58 101.568 11.48C101.568 15.7 108.268 13.64 108.268 16.02C108.268 16.92 107.528 17.46 105.748 17.46C104.368 17.46 102.928 17 102.028 16.36L101.228 17.88C102.108 18.58 103.848 19.12 105.608 19.12ZM117.208 19.12C119.108 19.12 120.688 18.32 121.528 16.84L120.068 15.92C119.388 16.96 118.348 17.44 117.188 17.44C115.108 17.44 113.548 16 113.548 13.7C113.548 11.44 115.108 9.98 117.188 9.98C118.348 9.98 119.388 10.46 120.068 11.5L121.528 10.56C120.688 9.08 119.108 8.3 117.208 8.3C113.948 8.3 111.608 10.54 111.608 13.7C111.608 16.86 113.948 19.12 117.208 19.12ZM131.973 8.4V13.88C131.973 16.16 130.693 17.4 128.693 17.4C126.873 17.4 125.833 16.36 125.833 14.28V8.4H123.913V14.5C123.913 17.62 125.733 19.12 128.473 19.12C129.973 19.12 131.293 18.5 132.073 17.4V19H133.893V8.4H131.973ZM147.129 13.76C147.129 10.5 144.949 8.3 141.889 8.3C138.829 8.3 136.569 10.56 136.569 13.7C136.569 16.86 138.849 19.12 142.269 19.12C144.029 19.12 145.489 18.52 146.449 17.4L145.389 16.16C144.609 17.02 143.569 17.44 142.329 17.44C140.229 17.44 138.729 16.2 138.489 14.34H147.089C147.109 14.16 147.129 13.92 147.129 13.76ZM141.889 9.92C143.749 9.92 145.089 11.18 145.289 12.96H138.489C138.689 11.16 140.049 9.92 141.889 9.92ZM149.795 19H151.715V4.16H149.795V19ZM159.241 8.3C157.541 8.3 155.961 8.78 154.861 9.66L155.661 11.1C156.481 10.4 157.761 9.96 159.021 9.96C160.921 9.96 161.861 10.9 161.861 12.52V12.9H158.821C155.661 12.9 154.561 14.3 154.561 16C154.561 17.84 156.081 19.12 158.481 19.12C160.141 19.12 161.321 18.56 161.961 17.6V19H163.781V12.6C163.781 9.7 162.141 8.3 159.241 8.3ZM158.801 17.64C157.341 17.64 156.461 16.98 156.461 15.92C156.461 15.02 157.001 14.28 158.901 14.28H161.861V15.76C161.381 16.98 160.241 17.64 158.801 17.64Z" fill="#23A6F0"/>
<path d="M241.515 18.861C238.902 18.861 236.913 20.889 236.913 23.45C236.913 26.011 238.902 28.039 241.489 28.039C244.076 28.039 246.091 26.011 246.091 23.424C246.091 20.837 244.128 18.861 241.515 18.861ZM241.489 27.454C239.227 27.454 237.524 25.686 237.524 23.45C237.524 21.214 239.227 19.446 241.515 19.446C243.803 19.446 245.48 21.162 245.48 23.424C245.48 25.686 243.751 27.454 241.489 27.454ZM243.842 22.618C243.842 21.539 243.036 20.85 241.736 20.85H239.656V26.05H240.54V24.386H241.736H241.957L243.036 26.05H243.933L242.75 24.217C243.439 23.97 243.842 23.411 243.842 22.618ZM241.671 23.658H240.527V21.591H241.671C242.503 21.591 242.984 21.955 242.984 22.618C242.984 23.281 242.503 23.658 241.671 23.658Z" fill="#23A6F0"/>
<path d="M39.2131 51.372C41.1672 52.5681 43.716 51.8652 44.8578 49.7685C45.9859 47.6968 45.3229 44.9945 43.3453 43.784C41.3912 42.5879 38.8424 43.2909 37.7006 45.3876C36.5589 47.4842 37.2355 50.1615 39.2131 51.372Z" fill="#23A6F0"/>
<path d="M40.8205 17.2912C42.7746 18.4873 45.3234 17.7844 46.4652 15.6877C47.5934 13.616 46.9303 10.9137 44.9527 9.70321C42.9986 8.5071 40.4499 9.21006 39.3081 11.3067C38.1663 13.4034 38.8429 16.0807 40.8205 17.2912Z" fill="#23A6F0"/>
<path d="M75.6028 33.5186C79.6983 25.9979 77.2351 16.2516 70.1414 11.9095C63.0183 7.54936 53.8549 10.1789 49.7594 17.6996L38.8493 37.7342C38.8493 37.7342 66.3581 50.495 75.6028 33.5186Z" fill="#23A6F0"/>
<path d="M6.4054 29.9463C2.88894 37.7895 6.0778 47.2963 13.4757 51.0245C20.9042 54.7682 29.8405 51.3718 33.3569 43.5286L42.7244 22.6349C42.7244 22.6349 14.343 12.242 6.4054 29.9463Z" fill="#23A6F0"/>
</svg>
